<mxfile host="app.diagrams.net" modified="2020-09-23T07:58:38.072Z" agent="5.0 (Windows NT 6.1; Win64; x64) AppleWebKit/537.36 (KHTML, like Gecko) Chrome/85.0.4183.102 Safari/537.36" etag="OgG1GMt4ZKYHX5r_bJzq" version="13.7.4" type="github">
  <diagram id="8VyAwBiUglNGo8E4LC5J" name="Page-1">
    <mxGraphModel dx="1422" dy="713" grid="1" gridSize="10" guides="1" tooltips="1" connect="1" arrows="1" fold="1" page="1" pageScale="1" pageWidth="827" pageHeight="1169" math="0" shadow="0">
      <root>
        <mxCell id="0" />
        <mxCell id="1" parent="0" />
        <mxCell id="XGM-an49gUvCOEtxkD35-3" style="edgeStyle=orthogonalEdgeStyle;rounded=0;orthogonalLoop=1;jettySize=auto;html=1;strokeWidth=2;" edge="1" parent="1" source="XGM-an49gUvCOEtxkD35-1">
          <mxGeometry relative="1" as="geometry">
            <mxPoint x="210" y="210" as="targetPoint" />
            <Array as="points">
              <mxPoint x="200" y="210" />
              <mxPoint x="200" y="210" />
            </Array>
          </mxGeometry>
        </mxCell>
        <mxCell id="XGM-an49gUvCOEtxkD35-1" value="Actor" style="shape=umlActor;verticalLabelPosition=bottom;verticalAlign=top;html=1;outlineConnect=0;strokeWidth=2;" vertex="1" parent="1">
          <mxGeometry x="100" y="180" width="20" height="60" as="geometry" />
        </mxCell>
        <mxCell id="XGM-an49gUvCOEtxkD35-4" value="" style="strokeWidth=2;html=1;shape=mxgraph.flowchart.direct_data;whiteSpace=wrap;fillColor=#cce5ff;strokeColor=#36393d;" vertex="1" parent="1">
          <mxGeometry x="240" y="180" width="100" height="50" as="geometry" />
        </mxCell>
        <mxCell id="XGM-an49gUvCOEtxkD35-10" style="edgeStyle=orthogonalEdgeStyle;rounded=0;orthogonalLoop=1;jettySize=auto;html=1;strokeWidth=2;" edge="1" parent="1" source="XGM-an49gUvCOEtxkD35-5">
          <mxGeometry relative="1" as="geometry">
            <mxPoint x="200" y="260" as="targetPoint" />
            <Array as="points">
              <mxPoint x="480" y="260" />
              <mxPoint x="230" y="260" />
            </Array>
          </mxGeometry>
        </mxCell>
        <mxCell id="XGM-an49gUvCOEtxkD35-11" style="edgeStyle=orthogonalEdgeStyle;rounded=0;orthogonalLoop=1;jettySize=auto;html=1;exitX=1;exitY=0.15;exitDx=0;exitDy=0;exitPerimeter=0;entryX=0;entryY=0.5;entryDx=0;entryDy=0;entryPerimeter=0;strokeWidth=1;" edge="1" parent="1" source="XGM-an49gUvCOEtxkD35-5" target="XGM-an49gUvCOEtxkD35-7">
          <mxGeometry relative="1" as="geometry" />
        </mxCell>
        <mxCell id="XGM-an49gUvCOEtxkD35-12" style="edgeStyle=orthogonalEdgeStyle;rounded=0;orthogonalLoop=1;jettySize=auto;html=1;exitX=1;exitY=0.85;exitDx=0;exitDy=0;exitPerimeter=0;entryX=0;entryY=0.75;entryDx=0;entryDy=0;entryPerimeter=0;strokeWidth=1;" edge="1" parent="1" source="XGM-an49gUvCOEtxkD35-5" target="XGM-an49gUvCOEtxkD35-8">
          <mxGeometry relative="1" as="geometry" />
        </mxCell>
        <mxCell id="XGM-an49gUvCOEtxkD35-5" value="" style="strokeWidth=2;html=1;shape=mxgraph.flowchart.database;whiteSpace=wrap;fillColor=#b0e3e6;strokeColor=#0e8088;" vertex="1" parent="1">
          <mxGeometry x="450" y="175" width="60" height="60" as="geometry" />
        </mxCell>
        <mxCell id="XGM-an49gUvCOEtxkD35-7" value="" style="strokeWidth=2;html=1;shape=mxgraph.flowchart.document2;whiteSpace=wrap;size=0.25;fillColor=#fad7ac;strokeColor=#b46504;" vertex="1" parent="1">
          <mxGeometry x="570" y="130" width="50" height="40" as="geometry" />
        </mxCell>
        <mxCell id="XGM-an49gUvCOEtxkD35-8" value="" style="strokeWidth=2;html=1;shape=mxgraph.flowchart.document2;whiteSpace=wrap;size=0.25;fillColor=#b1ddf0;strokeColor=#10739e;" vertex="1" parent="1">
          <mxGeometry x="570" y="240" width="50" height="40" as="geometry" />
        </mxCell>
        <mxCell id="XGM-an49gUvCOEtxkD35-9" style="edgeStyle=orthogonalEdgeStyle;rounded=0;orthogonalLoop=1;jettySize=auto;html=1;strokeWidth=2;" edge="1" parent="1">
          <mxGeometry relative="1" as="geometry">
            <mxPoint x="440" y="204.5" as="targetPoint" />
            <mxPoint x="350" y="204.5" as="sourcePoint" />
            <Array as="points">
              <mxPoint x="400" y="204.5" />
              <mxPoint x="400" y="204.5" />
            </Array>
          </mxGeometry>
        </mxCell>
        <mxCell id="XGM-an49gUvCOEtxkD35-13" value="" style="rounded=1;whiteSpace=wrap;html=1;absoluteArcSize=1;arcSize=14;strokeWidth=2;" vertex="1" parent="1">
          <mxGeometry x="720" y="165" width="100" height="70" as="geometry" />
        </mxCell>
        <mxCell id="XGM-an49gUvCOEtxkD35-14" value="" style="strokeWidth=2;html=1;shape=mxgraph.flowchart.annotation_2;align=left;labelPosition=right;pointerEvents=1;rotation=-180;" vertex="1" parent="1">
          <mxGeometry x="660" y="155" width="50" height="100" as="geometry" />
        </mxCell>
      </root>
    </mxGraphModel>
  </diagram>
</mxfile>
